<svg xmlns="http://www.w3.org/2000/svg" xmlns:xlink="http://www.w3.org/1999/xlink" width="1080" zoomAndPan="magnify" viewBox="0 0 810 809.999993" height="1080" preserveAspectRatio="xMidYMid meet" version="1.0"><defs><g/><clipPath id="159953053e"><path d="M 548.996094 430 L 567 430 L 567 485 L 548.996094 485 Z M 548.996094 430 " clip-rule="nonzero"/></clipPath><clipPath id="528f87bf80"><path d="M 710 430 L 728.996094 430 L 728.996094 485 L 710 485 Z M 710 430 " clip-rule="nonzero"/></clipPath><clipPath id="0d81aa9566"><path d="M 244 370.800781 L 262 370.800781 L 262 389 L 244 389 Z M 244 370.800781 " clip-rule="nonzero"/></clipPath><clipPath id="612d961dc4"><path d="M 220.386719 422.476562 L 240.636719 422.476562 L 240.636719 455.476562 L 220.386719 455.476562 Z M 220.386719 422.476562 " clip-rule="nonzero"/></clipPath><clipPath id="ac3cdeb194"><path d="M 90.414062 310.8125 L 141.414062 310.8125 L 141.414062 343 L 90.414062 343 Z M 90.414062 310.8125 " clip-rule="nonzero"/></clipPath></defs><g clip-path="url(#159953053e)"><path fill="#000000" d="M 566.996094 430.820312 L 554.996094 430.820312 C 548.996094 430.820312 548.996094 434.753906 548.996094 436.832031 L 548.996094 478.929688 C 548.996094 481.011719 548.996094 484.941406 554.996094 484.941406 L 566.996094 484.941406 Z M 566.996094 430.820312 " fill-opacity="1" fill-rule="nonzero"/></g><path fill="#000000" d="M 608.996094 442.847656 L 668.996094 442.847656 L 668.996094 466.902344 L 608.996094 466.902344 Z M 608.996094 442.847656 " fill-opacity="1" fill-rule="nonzero"/><g clip-path="url(#528f87bf80)"><path fill="#000000" d="M 722.996094 430.820312 L 710.996094 430.820312 L 710.996094 484.941406 L 722.996094 484.941406 C 728.996094 484.941406 728.996094 481.011719 728.996094 478.929688 L 728.996094 436.832031 C 728.996094 434.753906 728.996094 430.820312 722.996094 430.820312 Z M 722.996094 430.820312 " fill-opacity="1" fill-rule="nonzero"/></g><path fill="#000000" d="M 602.996094 444.351562 L 602.996094 418.792969 C 602.996094 416.710938 602.996094 412.777344 596.996094 412.777344 L 578.996094 412.777344 C 572.996094 412.777344 572.996094 416.710938 572.996094 418.792969 L 572.996094 490.957031 C 572.996094 493.039062 572.996094 496.96875 578.996094 496.96875 L 596.996094 496.96875 C 602.996094 496.96875 602.996094 493.039062 602.996094 490.957031 Z M 602.996094 444.351562 " fill-opacity="1" fill-rule="nonzero"/><path fill="#000000" d="M 704.996094 481.9375 L 704.996094 418.792969 C 704.996094 416.710938 704.996094 412.777344 698.996094 412.777344 L 680.515625 412.777344 C 674.996094 412.777344 674.996094 416.710938 674.996094 418.792969 L 674.996094 490.957031 C 674.996094 493.039062 674.996094 496.96875 680.515625 496.96875 L 698.996094 496.96875 C 704.996094 496.96875 704.996094 493.039062 704.996094 490.957031 Z M 704.996094 481.9375 " fill-opacity="1" fill-rule="nonzero"/><g fill="#000000" fill-opacity="1"><g transform="translate(81.011718, 453.749997)"><g><path d="M 137.5625 0 L 12 0 L 12 -107.578125 L 57.125 -107.578125 L 57.125 -26.609375 L 137.5625 -26.609375 Z M 137.5625 0 "/></g></g></g><g fill="#000000" fill-opacity="1"><g transform="translate(221.559461, 453.749997)"><g><path d="M 81.34375 2.328125 C 54.75 2.328125 35.179688 -3.144531 22.640625 -14.09375 C 11.546875 -23.789062 6 -37.007812 6 -53.75 C 6 -70.445312 11.546875 -83.640625 22.640625 -93.328125 C 35.179688 -104.273438 54.75 -109.75 81.34375 -109.75 C 107.925781 -109.75 127.488281 -104.273438 140.03125 -93.328125 C 151.132812 -83.640625 156.6875 -70.445312 156.6875 -53.75 C 156.6875 -37.007812 151.132812 -23.789062 140.03125 -14.09375 C 127.488281 -3.144531 107.925781 2.328125 81.34375 2.328125 Z M 81.34375 -26.53125 C 92.238281 -26.53125 100.234375 -29.65625 105.328125 -35.90625 C 109.421875 -40.957031 111.46875 -46.90625 111.46875 -53.75 C 111.46875 -60.59375 109.421875 -66.515625 105.328125 -71.515625 C 100.234375 -77.816406 92.238281 -80.96875 81.34375 -80.96875 C 70.445312 -80.96875 62.425781 -77.816406 57.28125 -71.515625 C 53.175781 -66.515625 51.125 -60.59375 51.125 -53.75 C 51.125 -46.90625 53.175781 -40.957031 57.28125 -35.90625 C 62.425781 -29.65625 70.445312 -26.53125 81.34375 -26.53125 Z M 81.34375 -26.53125 "/></g></g></g><g fill="#000000" fill-opacity="1"><g transform="translate(384.220053, 453.749997)"><g><path d="M 81.34375 2.328125 C 54.75 2.328125 35.179688 -3.144531 22.640625 -14.09375 C 11.546875 -23.789062 6 -36.984375 6 -53.671875 C 6 -70.421875 11.546875 -83.640625 22.640625 -93.328125 C 35.179688 -104.273438 54.75 -109.75 81.34375 -109.75 C 96.476562 -109.75 109.066406 -108.050781 119.109375 -104.65625 C 129.160156 -101.257812 137.046875 -96.625 142.765625 -90.75 C 148.492188 -84.875 152.40625 -78.113281 154.5 -70.46875 L 106.234375 -70.46875 C 101.179688 -77.414062 92.882812 -80.890625 81.34375 -80.890625 C 70.445312 -80.890625 62.425781 -77.765625 57.28125 -71.515625 C 53.175781 -66.472656 51.125 -60.523438 51.125 -53.671875 C 51.125 -46.828125 53.175781 -40.90625 57.28125 -35.90625 C 62.425781 -29.65625 70.445312 -26.53125 81.34375 -26.53125 C 90.132812 -26.53125 96.738281 -27.289062 101.15625 -28.8125 C 105.582031 -30.34375 108.820312 -32.332031 110.875 -34.78125 L 93.265625 -34.78125 L 93.265625 -53.671875 L 154.5 -53.671875 L 154.5 0.078125 L 135.765625 0.078125 L 131.9375 -10.34375 C 120 -1.894531 103.132812 2.328125 81.34375 2.328125 Z M 81.34375 2.328125 "/></g></g></g><path fill="#00bf63" d="M 246.167969 384.34375 C 239.910156 389.863281 233.074219 395.960938 226.8125 401.476562 C 226.816406 401.484375 226.820312 401.488281 226.824219 401.492188 C 226.886719 401.582031 226.945312 401.675781 227 401.785156 C 227.0625 401.890625 227.109375 401.992188 227.148438 402.097656 C 227.613281 403.125 227.882812 404.230469 227.964844 405.351562 C 234.753906 399.363281 242.121094 392.800781 248.910156 386.8125 C 247.839844 386.179688 246.898438 385.335938 246.167969 384.34375 Z M 246.167969 384.34375 " fill-opacity="1" fill-rule="nonzero"/><path fill="#00bf63" d="M 194.984375 384.375 C 194.890625 385.738281 194.46875 387.050781 193.792969 388.210938 C 199.484375 393.226562 205.75 398.820312 211.441406 403.835938 C 211.734375 402.589844 212.289062 401.414062 213.097656 400.414062 C 207.253906 395.257812 200.832031 389.53125 194.984375 384.375 Z M 194.984375 384.375 " fill-opacity="1" fill-rule="nonzero"/><path fill="#00bf63" d="M 157.125 404.121094 C 155.695312 403.039062 153.90625 402.367188 151.871094 402.257812 C 146.917969 401.992188 143.34375 406.472656 143.097656 411.03125 C 142.832031 415.984375 147.308594 419.558594 151.871094 419.804688 C 156.621094 420.0625 160.097656 415.941406 160.585938 411.578125 C 160.628906 411.414062 160.652344 411.234375 160.640625 411.03125 C 160.652344 410.832031 160.628906 410.660156 160.589844 410.496094 C 160.453125 409.175781 160.085938 407.964844 159.511719 406.90625 C 166.175781 401.035156 173.121094 394.871094 179.785156 389 C 179.003906 387.984375 178.445312 386.800781 178.203125 385.507812 C 171.273438 391.617188 164.054688 398.011719 157.125 404.121094 Z M 146.769531 411.03125 C 146.414062 404.453125 156.617188 404.488281 156.96875 411.03125 C 156.617188 417.605469 147.121094 417.605469 146.769531 411.03125 Z M 146.769531 411.03125 " fill-opacity="1" fill-rule="nonzero"/><path fill="#00bf63" d="M 195.230469 383.007812 C 195.222656 382.941406 195.210938 382.871094 195.199219 382.804688 C 195.191406 382.710938 195.183594 382.617188 195.164062 382.519531 C 194.335938 378.105469 190.246094 374.996094 185.773438 375.371094 C 181.21875 375.753906 177.90625 379.632812 177.78125 384.101562 C 177.765625 384.683594 177.8125 385.246094 177.917969 385.792969 C 178.160156 387.089844 178.714844 388.273438 179.496094 389.289062 C 181.222656 391.535156 184.042969 392.949219 186.972656 392.859375 C 190.027344 392.769531 192.632812 390.984375 194.082031 388.5 C 194.757812 387.339844 195.175781 386.027344 195.273438 384.664062 C 195.3125 384.117188 195.300781 383.566406 195.230469 383.007812 Z M 186.972656 389.1875 C 183.933594 389.460938 181.601562 387.011719 181.453125 384.101562 C 181.320312 381.480469 183.484375 379.503906 185.878906 379.03125 C 188.6875 378.476562 191.011719 380.765625 191.582031 383.300781 C 191.820312 386.210938 190.0625 388.910156 186.972656 389.1875 Z M 186.972656 389.1875 " fill-opacity="1" fill-rule="nonzero"/><path fill="#00bf63" d="M 227.289062 401.496094 C 227.234375 401.386719 227.175781 401.292969 227.109375 401.203125 C 227.105469 401.199219 227.105469 401.195312 227.101562 401.1875 C 224.554688 397.164062 219.492188 395.871094 215.257812 398.105469 C 214.277344 398.625 213.460938 399.316406 212.808594 400.125 C 212 401.125 211.445312 402.300781 211.152344 403.546875 C 210.625 405.777344 210.925781 408.222656 212.09375 410.261719 C 214.410156 414.300781 219.503906 415.390625 223.554688 413.554688 C 226.925781 412.03125 228.5 408.5 228.253906 405.0625 C 228.171875 403.941406 227.902344 402.835938 227.4375 401.808594 C 227.398438 401.707031 227.351562 401.601562 227.289062 401.496094 Z M 222.039062 410.210938 C 219.859375 411.5 216.914062 410.71875 215.464844 408.71875 C 213.78125 406.398438 214.421875 403.128906 216.742188 401.503906 C 219.285156 399.722656 222.632812 400.792969 224.117188 403.347656 C 225.390625 405.890625 224.441406 408.785156 222.039062 410.210938 Z M 222.039062 410.210938 " fill-opacity="1" fill-rule="nonzero"/><g clip-path="url(#0d81aa9566)"><path fill="#00bf63" d="M 261.824219 379.21875 C 261.695312 374.609375 257.808594 371.128906 253.367188 370.855469 C 253.269531 370.84375 253.171875 370.835938 253.066406 370.839844 C 252.957031 370.835938 252.859375 370.84375 252.765625 370.855469 C 248.152344 371.125 244.6875 374.609375 244.300781 379.21875 C 244.132812 381.234375 244.757812 383.109375 245.878906 384.632812 C 246.609375 385.625 247.550781 386.46875 248.621094 387.101562 C 250.175781 388.019531 252.003906 388.496094 253.84375 388.34375 C 258.515625 387.949219 261.953125 383.832031 261.824219 379.21875 Z M 253.738281 384.683594 C 250.46875 385.328125 247.890625 382.21875 247.976562 379.21875 C 248.050781 376.535156 250.53125 374.582031 253.066406 374.511719 C 255.710938 374.585938 257.929688 376.535156 258.152344 379.21875 C 258.386719 382 256.351562 384.164062 253.738281 384.683594 Z M 253.738281 384.683594 " fill-opacity="1" fill-rule="nonzero"/></g><g clip-path="url(#612d961dc4)"><path fill="#000000" d="M 220.460938 426.367188 L 232.867188 438.976562 L 220.460938 451.582031 L 224.289062 455.476562 L 240.523438 438.976562 L 224.289062 422.476562 Z M 220.460938 426.367188 " fill-opacity="1" fill-rule="nonzero"/></g><g clip-path="url(#ac3cdeb194)"><path fill="#000000" d="M 96.425781 342.953125 L 115.914062 323.1875 L 135.398438 342.953125 L 141.414062 336.851562 L 115.914062 310.988281 L 90.414062 336.851562 Z M 96.425781 342.953125 " fill-opacity="1" fill-rule="nonzero"/></g></svg>