<svg xmlns="http://www.w3.org/2000/svg" width="1080" viewBox="0 0 810 810" height="1080" version="1.0"><defs><clipPath id="a"><path d="M549 430h18v55h-18Zm0 0"/></clipPath><clipPath id="b"><path d="M710 430h19v55h-19Zm0 0"/></clipPath><clipPath id="c"><path d="M256 402h37v19h-37Zm0 0"/></clipPath><clipPath id="d"><path d="m164.4 335.57 153.01 57.62-23.78 63.17-153.01-57.62Zm0 0"/></clipPath><clipPath id="e"><path d="m164.4 335.57 153.01 57.62-23.78 63.17-153.01-57.62Zm0 0"/></clipPath><clipPath id="f"><path d="M221 378h20v34h-20Zm0 0"/></clipPath><clipPath id="g"><path d="m164.4 335.57 153.01 57.62-23.78 63.17-153.01-57.62Zm0 0"/></clipPath><clipPath id="h"><path d="m164.4 335.57 153.01 57.62-23.78 63.17-153.01-57.62Zm0 0"/></clipPath><clipPath id="i"><path d="M144 371h59v33h-59Zm0 0"/></clipPath><clipPath id="j"><path d="m164.4 335.57 153.01 57.62-23.78 63.17-153.01-57.62Zm0 0"/></clipPath><clipPath id="k"><path d="m164.4 335.57 153.01 57.62-23.78 63.17-153.01-57.62Zm0 0"/></clipPath><clipPath id="l"><path d="M201 361h25v25h-25Zm0 0"/></clipPath><clipPath id="m"><path d="m164.4 335.57 153.01 57.62-23.78 63.17-153.01-57.62Zm0 0"/></clipPath><clipPath id="n"><path d="m164.4 335.57 153.01 57.62-23.78 63.17-153.01-57.62Zm0 0"/></clipPath><clipPath id="o"><path d="M233 405h25v25h-25Zm0 0"/></clipPath><clipPath id="p"><path d="m164.4 335.57 153.01 57.62-23.78 63.17-153.01-57.62Zm0 0"/></clipPath><clipPath id="q"><path d="m164.4 335.57 153.01 57.62-23.78 63.17-153.01-57.62Zm0 0"/></clipPath><clipPath id="r"><path d="M289 388h25v25h-25Zm0 0"/></clipPath><clipPath id="s"><path d="m164.4 335.57 153.01 57.62-23.78 63.17-153.01-57.62Zm0 0"/></clipPath><clipPath id="t"><path d="m164.4 335.57 153.01 57.62-23.78 63.17-153.01-57.62Zm0 0"/></clipPath></defs><g clip-path="url(#a)"><path fill="#fff" d="M567 430.67h-12c-6 0-6 3.92-6 6v42c0 2.07 0 6 6 6h12Zm0 0"/></g><path fill="#fff" d="M609 442.67h60v24h-60Zm0 0"/><g clip-path="url(#b)"><path fill="#fff" d="M723 430.67h-12v54h12c6 0 6-3.93 6-6v-42c0-2.08 0-6-6-6Zm0 0"/></g><path fill="#fff" d="M603 444.17v-25.5c0-2.08 0-6-6-6h-18c-6 0-6 3.92-6 6v72c0 2.07 0 6 6 6h18c6 0 6-3.93 6-6ZM705 481.67v-63c0-2.08 0-6-6-6h-18.48c-5.52 0-5.52 3.92-5.52 6v72c0 2.07 0 6 5.52 6H699c6 0 6-3.93 6-6ZM218.57 453.75H93.01V346.17h45.13v80.97h80.43ZM302.9 456.08c-26.6 0-46.16-5.47-58.7-16.42-11.1-9.7-16.64-22.92-16.64-39.66 0-16.7 5.55-29.9 16.64-39.58 12.54-10.94 32.1-16.42 58.7-16.42 26.59 0 46.15 5.48 58.7 16.42 11.1 9.69 16.65 22.88 16.65 39.58 0 16.74-5.56 29.96-16.66 39.66-12.54 10.95-32.1 16.42-58.69 16.42Zm0-28.86c10.9 0 18.9-3.13 23.99-9.38 4.1-5.05 6.14-11 6.14-17.84s-2.05-12.77-6.14-17.77c-5.1-6.3-13.1-9.45-23.99-9.45-10.9 0-18.91 3.15-24.06 9.45-4.1 5-6.16 10.93-6.16 17.77s2.06 12.8 6.16 17.84c5.15 6.25 13.16 9.38 24.06 9.38ZM465.56 456.08c-26.59 0-46.16-5.47-58.7-16.42-11.1-9.7-16.64-22.9-16.64-39.58 0-16.75 5.55-29.97 16.64-39.66 12.54-10.94 32.11-16.42 58.7-16.42 15.14 0 27.73 1.7 37.77 5.1 10.05 3.4 17.94 8.02 23.66 13.9a46.16 46.16 0 0 1 11.73 20.28h-48.27c-5.05-6.94-13.35-10.42-24.89-10.42-10.9 0-18.91 3.12-24.06 9.37-4.1 5.05-6.15 11-6.15 17.85 0 6.84 2.05 12.76 6.15 17.76 5.15 6.25 13.17 9.38 24.06 9.38 8.8 0 15.4-.76 19.82-2.28 4.42-1.53 7.66-3.52 9.72-5.97h-17.61v-18.9h61.23v53.76h-18.73l-3.83-10.42c-11.94 8.45-28.8 12.67-50.6 12.67Zm0 0"/><g clip-path="url(#c)"><g clip-path="url(#d)"><g clip-path="url(#e)"><path fill="#00bf63" d="M290.28 402.79c-10.68 4.05-22.39 8.56-33.07 12.61v.03a3.16 3.16 0 0 1 .13.93c.1 1.54-.09 3.09-.52 4.56 11.59-4.4 24.2-9.25 35.79-13.65a12.64 12.64 0 0 1-2.33-4.48Zm0 0"/></g></g></g><g clip-path="url(#f)"><g clip-path="url(#g)"><g clip-path="url(#h)"><path fill="#00bf63" d="M224.68 378.13a12.13 12.13 0 0 1-3.38 4.34c4.87 9.17 10.2 19.36 15.07 28.53.98-1.45 2.26-2.7 3.78-3.58-5-9.43-10.47-19.87-15.47-29.3Zm0 0"/></g></g></g><g clip-path="url(#i)"><g clip-path="url(#j)"><g clip-path="url(#k)"><path fill="#00bf63" d="M166.64 385.16a12.94 12.94 0 0 0-5.84-4.92c-6.21-2.73-12.96 1.28-15.48 7-2.73 6.22 1.29 12.97 7.01 15.48 5.97 2.62 12.41-.98 15.14-6.33.14-.2.25-.41.34-.68.1-.25.16-.48.19-.71.46-1.75.57-3.48.35-5.12 11.37-4.31 23.25-8.85 34.62-13.16a11.23 11.23 0 0 1-.34-5.24c-11.83 4.48-24.17 9.2-36 13.68Zm-16.6 3.86c2.71-8.6 15.77-3.63 13.06 4.92-3.62 8.26-15.79 3.67-13.07-4.92Zm0 0"/></g></g></g><g clip-path="url(#l)"><g clip-path="url(#m)"><g clip-path="url(#n)"><path fill="#00bf63" d="m225.65 376.5.06-.28.1-.38a12.11 12.11 0 0 0-8.6-13.7c-6.01-1.7-12.13 1.67-14.44 7.33a11.01 11.01 0 0 0-.3 7.48 12.62 12.62 0 0 0 7.85 8.19c3.96 1.35 8.16.32 11.21-2.16a12.13 12.13 0 0 0 4.12-6.48Zm-13.56 3.93c-4.03-1.12-5.84-5.38-4.62-9.18 1.1-3.43 4.82-4.91 8.12-4.36 3.86.64 5.74 4.7 5.25 8.22-1.1 3.84-4.66 6.46-8.75 5.32Zm0 0"/></g></g></g><g clip-path="url(#o)"><g clip-path="url(#p)"><g clip-path="url(#q)"><path fill="#00bf63" d="M257.81 415.65a2.64 2.64 0 0 0-.08-.45l-.01-.03a12.2 12.2 0 0 0-13.69-9.67c-1.5.2-2.88.69-4.1 1.41-1.53.9-2.8 2.13-3.79 3.59a12.71 12.71 0 0 0-2.03 9.05c1.02 6.3 7.02 10.15 13.1 9.76 5.06-.33 8.77-4.1 10.12-8.62a13.1 13.1 0 0 0 .48-5.04Zm-10.93 8.64c-3.42.6-6.81-1.83-7.7-5.09a7.08 7.08 0 0 1 5.11-8.63c4.12-1.05 7.9 1.93 8.57 5.93a7.09 7.09 0 0 1-5.98 7.79Zm0 0"/></g></g></g><g clip-path="url(#r)"><g clip-path="url(#s)"><g clip-path="url(#t)"><path fill="#00bf63" d="M312.82 403.77c2.06-5.97-1.25-12.3-6.8-14.8a2.86 2.86 0 0 0-.77-.3c-6.05-1.87-12.17.93-14.89 6.65-1.19 2.5-1.29 5.2-.59 7.7a12.64 12.64 0 0 0 8.42 8.6c6.17 1.74 12.57-1.87 14.63-7.85Zm-13 3.1c-4.5-.75-6.3-5.98-4.75-9.78 1.4-3.4 5.51-4.7 8.8-3.57a7.07 7.07 0 0 1 4.24 8.48c-1.04 3.68-4.7 5.47-8.29 4.87Zm0 0"/></g></g></g></svg>